<svg xmlns="http://www.w3.org/2000/svg" width="466" height="442" viewBox="0 0 466 442" version="1.1"><path d="M 220 60.038 C 210.375 66.026, 201.150 71.804, 199.500 72.877 C 196.618 74.752, 122.920 120.489, 95 137.729 C 87.575 142.314, 81.500 146.533, 81.500 147.105 C 81.500 147.795, 89.320 148.121, 104.831 148.077 C 117.664 148.041, 128.012 148.346, 127.827 148.756 C 127.642 149.165, 125.628 153.325, 123.353 158 C 114.292 176.613, 110.566 193.965, 111.220 214.500 C 111.647 227.920, 111.855 229.063, 116.245 242.106 C 125.963 270.978, 146.952 306.711, 178.444 348 C 198.018 373.664, 237.203 419.526, 238.930 418.794 C 239.312 418.632, 244.042 413.325, 249.442 407 C 254.842 400.675, 259.784 395.050, 260.423 394.500 C 263.445 391.901, 288.863 360.582, 301.393 344.018 C 335.104 299.454, 356.631 260.970, 364.051 232 C 367.785 217.421, 366.831 197.095, 361.540 178.495 C 358.863 169.087, 353.454 155.613, 350.841 151.846 C 349.828 150.386, 349 148.961, 349 148.680 C 349 148.398, 356.538 148.141, 365.750 148.108 C 374.962 148.074, 385.538 148.037, 389.250 148.024 C 392.962 148.011, 396 147.591, 396 147.092 C 396 146.592, 389.587 142.235, 381.750 137.410 C 373.913 132.584, 364.228 126.580, 360.229 124.068 C 356.230 121.556, 350.380 117.888, 347.229 115.918 C 341.500 112.336, 341.500 112.336, 341.280 98.967 C 341.159 91.614, 340.849 85.048, 340.591 84.376 C 340.333 83.704, 336.263 80.756, 331.547 77.827 C 326.830 74.897, 321.066 71.298, 318.736 69.829 C 316.406 68.359, 313.950 67.122, 313.278 67.079 C 312.385 67.021, 311.982 70.642, 311.778 80.552 C 311.500 94.104, 311.500 94.104, 300.500 87.226 C 290.411 80.917, 278.766 73.673, 249.767 55.665 C 243.864 51.999, 238.689 49.034, 238.267 49.075 C 237.845 49.116, 229.625 54.049, 220 60.038 M 229.500 109.650 C 217.113 110.927, 198.326 116.383, 191 120.831 C 174.966 130.565, 167.574 136.485, 159.792 145.823 C 149.005 158.768, 143.327 169.366, 138.266 186 C 136.005 193.433, 135.669 196.384, 135.590 209.500 C 135.511 222.626, 135.795 225.437, 137.857 232 C 146.806 260.480, 172.627 300.898, 217.954 357.380 C 225.404 366.663, 232.850 375.984, 234.500 378.092 C 236.150 380.200, 237.950 381.930, 238.500 381.937 C 239.050 381.943, 240.625 380.425, 242 378.563 C 243.375 376.700, 251.503 366.474, 260.063 355.838 C 303.926 301.333, 327.685 264.445, 337.803 235.139 C 341.284 225.057, 341.474 223.845, 341.441 212 C 341.422 205.125, 340.836 196.800, 340.139 193.500 C 332.486 157.274, 309.019 129.199, 275.608 116.295 C 270.684 114.394, 263.470 112.239, 259.577 111.508 C 251.636 110.015, 235.576 109.023, 229.500 109.650 M 223.398 162.889 C 214.809 165.348, 208.519 169.289, 201 176.924 C 178.094 200.182, 181.920 238.291, 209 256.604 C 218.283 262.882, 231.679 266.569, 242.050 265.699 C 269.877 263.366, 291 240.853, 291 213.529 C 291 197.984, 286.652 187.597, 275.465 176.416 C 264.522 165.479, 253.517 160.975, 238 161.083 C 233.085 161.117, 226.926 161.879, 223.398 162.889" stroke="none" fill="#fc5c05" fill-rule="evenodd"/></svg>